<?xml version="1.0" encoding="utf-8"?>
<!-- Generator: Adobe Illustrator 25.4.1, SVG Export Plug-In . SVG Version: 6.00 Build 0)  -->
<svg version="1.1" id="Layer_1" xmlns="http://www.w3.org/2000/svg" xmlns:xlink="http://www.w3.org/1999/xlink" x="0px" y="0px"
	 viewBox="0 0 512 512" style="enable-background:new 0 0 512 512;" xml:space="preserve">
<style type="text/css">
	.st0{fill:#007BB2;}
</style>
<g>
	<g>
		<g>
			<path d="M256,6.7c-72.5,0-131.5,59-131.5,131.5s59,131.5,131.5,131.5s131.5-59,131.5-131.5S328.5,6.7,256,6.7z M256,243.1
				c-57.9,0-104.9-47.1-104.9-104.9S198.1,33.3,256,33.3s104.9,47.1,104.9,104.9S313.9,243.1,256,243.1z"/>
		</g>
	</g>
	<g>
		<g>
			<path d="M419.6,355.5c-36-36.5-83.7-56.7-134.3-56.7h-58.4c-50.6,0-98.4,20.1-134.3,56.7c-35.8,36.4-55.5,84.4-55.5,135.2
				c0,8.1,6.5,14.6,14.6,14.6h409c8.1,0,14.6-6.5,14.6-14.6C475.1,439.9,455.4,391.9,419.6,355.5z M59.2,483.1
				C66.8,392.4,138.6,321,225.6,321h60.8c87.1,0,158.8,71.3,166.4,162.1H59.2z"/>
		</g>
	</g>
</g>
</svg>
