<?xml version="1.0" encoding="utf-8"?>
<!-- Generator: Adobe Illustrator 16.0.0, SVG Export Plug-In . SVG Version: 6.00 Build 0)  -->
<!DOCTYPE svg PUBLIC "-//W3C//DTD SVG 1.1//EN" "http://www.w3.org/Graphics/SVG/1.1/DTD/svg11.dtd">
<svg version="1.1" id="Layer_1" xmlns="http://www.w3.org/2000/svg" xmlns:xlink="http://www.w3.org/1999/xlink" x="0px" y="0px"
	 width="474.658px" height="313.15px" viewBox="0 0 474.658 313.15" enable-background="new 0 0 474.658 313.15"
	 xml:space="preserve">
<g>
	<defs>
		<rect id="SVGID_1_" width="474.658" height="313.15"/>
	</defs>
	<clipPath id="SVGID_2_">
		<use xlink:href="#SVGID_1_"  overflow="visible"/>
	</clipPath>
	<path clip-path="url(#SVGID_2_)" fill="#FFCC00" d="M296.805,27.722c71.214,0,128.89,57.676,128.89,128.889
		c0,71.141-57.676,128.889-128.89,128.889c-71.141,0-128.889-57.748-128.889-128.889C167.916,85.397,225.664,27.722,296.805,27.722"
		/>
	<polygon clip-path="url(#SVGID_2_)" fill="#FFFFFF" points="296.805,27.434 298.461,130.833 313.006,28.441 301.629,131.265 
		328.919,31.538 304.798,132.057 344.328,36.506 307.822,133.282 359.018,43.418 310.63,134.793 372.698,52.131 313.222,136.737 
		385.228,62.429 315.598,138.97 396.316,74.236 317.688,141.417 405.894,87.414 319.415,144.153 413.669,101.599 320.783,147.106 
		419.646,116.647 321.791,150.203 423.678,132.417 322.367,153.371 425.694,148.475 322.583,156.61 425.694,164.675 322.367,159.85 
		423.678,180.804 321.791,163.019 419.646,196.501 320.783,166.043 413.669,211.55 319.415,168.996 405.894,225.807 
		317.688,171.732 396.316,238.913 315.598,174.251 385.228,250.721 313.222,176.413 372.698,261.09 310.63,178.357 359.018,269.731 
		307.822,179.941 344.328,276.643 304.798,181.092 328.919,281.683 301.629,181.884 313.006,284.708 298.461,182.317 
		296.805,285.715 295.221,182.317 280.604,284.708 291.981,181.884 264.691,281.683 288.884,181.092 249.282,276.643 
		285.86,179.941 234.593,269.731 282.98,178.357 220.912,261.09 280.388,176.413 208.455,250.721 278.012,174.251 197.294,238.913 
		275.996,171.732 187.789,225.807 274.268,168.996 179.941,211.55 272.827,166.043 174.036,196.501 271.819,163.019 
		170.004,180.804 271.243,159.85 167.916,164.675 271.027,156.61 167.916,148.475 271.243,153.371 170.004,132.417 271.819,150.203 
		174.036,116.647 272.827,147.106 179.941,101.599 274.268,144.153 187.789,87.414 275.996,141.417 197.294,74.236 278.012,138.97 
		208.455,62.429 280.388,136.737 220.912,52.131 282.98,134.793 234.593,43.418 285.86,133.282 249.282,36.506 288.884,132.057 
		264.691,31.538 291.981,131.265 280.604,28.441 295.221,130.833 	"/>
	<polygon clip-path="url(#SVGID_2_)" fill="none" stroke="#FFFFFF" stroke-width="6.941" points="296.805,27.434 298.461,130.833 
		313.006,28.441 301.629,131.265 328.919,31.538 304.798,132.057 344.328,36.506 307.822,133.282 359.018,43.418 310.63,134.793 
		372.698,52.131 313.222,136.737 385.228,62.429 315.598,138.97 396.316,74.236 317.688,141.417 405.894,87.414 319.415,144.153 
		413.669,101.599 320.783,147.106 419.646,116.647 321.791,150.203 423.678,132.417 322.367,153.371 425.694,148.475 
		322.583,156.61 425.694,164.675 322.367,159.85 423.678,180.804 321.791,163.019 419.646,196.501 320.783,166.043 413.669,211.55 
		319.415,168.996 405.894,225.807 317.688,171.732 396.316,238.913 315.598,174.251 385.228,250.721 313.222,176.413 
		372.698,261.09 310.63,178.357 359.018,269.731 307.822,179.941 344.328,276.643 304.798,181.092 328.919,281.683 301.629,181.884 
		313.006,284.708 298.461,182.317 296.805,285.715 295.221,182.317 280.604,284.708 291.981,181.884 264.691,281.683 
		288.884,181.092 249.282,276.643 285.86,179.941 234.593,269.731 282.98,178.357 220.912,261.09 280.388,176.413 208.455,250.721 
		278.012,174.251 197.294,238.913 275.996,171.732 187.789,225.807 274.268,168.996 179.941,211.55 272.827,166.043 
		174.036,196.501 271.819,163.019 170.004,180.804 271.243,159.85 167.916,164.675 271.027,156.61 167.916,148.475 271.243,153.371 
		170.004,132.417 271.819,150.203 174.036,116.647 272.827,147.106 179.941,101.599 274.268,144.153 187.789,87.414 
		275.996,141.417 197.294,74.236 278.012,138.97 208.455,62.429 280.388,136.737 220.912,52.131 282.98,134.793 234.593,43.418 
		285.86,133.282 249.282,36.506 288.884,132.057 264.691,31.538 291.981,131.265 280.604,28.441 295.221,130.833 	"/>
	<path clip-path="url(#SVGID_2_)" fill="#002469" d="M177.853,189.589c0-3.384-0.72-6.553-2.16-9.434
		c-1.512-2.88-3.744-5.184-6.697-6.911l-10.44,39.026h-7.705l13.033-48.676c1.8,0,3.6,0.432,5.472,1.224
		c1.873,0.792,3.601,1.801,5.257,3.024c1.584,1.296,3.096,2.665,4.464,4.249c1.296,1.584,2.376,3.096,3.24,4.608l3.457-13.105h7.704
		l-12.961,48.676h-7.704c0.36-1.585,0.864-3.313,1.44-5.257c0.576-1.944,1.152-3.96,1.728-5.976
		c0.504-1.944,0.936-3.961,1.296-5.978C177.708,193.045,177.853,191.246,177.853,189.589 M219.399,163.595l-2.016,7.489h-6.697
		l-11.016,41.187h-7.705l11.017-41.187h-6.841l1.945-7.489H219.399z M209.895,212.271l12.961-48.676h21.674l-2.016,7.489h-13.897
		l-3.529,13.177h10.369l-1.944,7.416h-10.441l-3.528,13.033h13.969l-2.016,7.561H209.895z M250.722,163.595h10.729
		c1.944,0,3.744,0.36,5.473,1.008c1.657,0.648,3.169,1.584,4.393,2.809c1.225,1.224,2.232,2.665,2.952,4.32
		c0.72,1.656,1.08,3.528,1.08,5.473c0,2.016-0.36,4.031-1.08,5.976c-0.72,1.945-1.728,3.745-2.952,5.401
		c-1.224,1.584-2.735,3.096-4.393,4.319c-1.656,1.296-3.384,2.305-5.328,3.097l3.528,16.273h-7.633l-3.096-14.762h-4.969
		l-3.96,14.762h-7.777L250.722,163.595z M254.395,190.093c1.584,0,3.168-0.36,4.752-1.08c1.656-0.72,3.096-1.728,4.393-2.952
		c1.224-1.224,2.231-2.593,3.096-4.104c0.792-1.584,1.225-3.168,1.225-4.752c0-1.944-0.648-3.456-1.801-4.536
		c-1.224-1.08-2.736-1.584-4.608-1.584h-4.968l-5.113,19.009H254.395z M284.996,163.595h10.729c1.945,0,3.745,0.36,5.473,1.008
		c1.656,0.648,3.097,1.584,4.393,2.809c1.224,1.224,2.231,2.665,2.952,4.32c0.72,1.656,1.079,3.528,1.079,5.473
		c0,2.592-0.575,5.111-1.8,7.561c-1.151,2.448-2.735,4.608-4.752,6.552c-1.943,1.872-4.176,3.385-6.695,4.464
		c-2.521,1.152-5.113,1.729-7.705,1.729h-5.04l-3.89,14.762h-7.775L284.996,163.595z M288.669,190.093
		c1.512,0,3.168-0.36,4.752-1.08c1.655-0.72,3.097-1.728,4.32-2.952c1.296-1.224,2.305-2.593,3.168-4.104
		c0.792-1.584,1.225-3.168,1.225-4.752c0-1.944-0.648-3.456-1.8-4.536c-1.225-1.08-2.736-1.584-4.609-1.584h-5.04l-5.04,19.009
		H288.669z M319.271,163.595H330c1.943,0,3.743,0.36,5.399,1.008c1.729,0.648,3.169,1.584,4.465,2.809
		c1.225,1.224,2.232,2.665,2.952,4.32c0.72,1.656,1.08,3.528,1.08,5.473c0,2.016-0.36,4.031-1.08,5.976
		c-0.72,1.945-1.728,3.745-2.952,5.401c-1.296,1.584-2.736,3.096-4.393,4.319c-1.656,1.296-3.456,2.305-5.328,3.097l3.528,16.273
		h-7.632l-3.098-14.762h-5.04l-3.96,14.762h-7.705L319.271,163.595z M322.942,190.093c1.514,0,3.169-0.36,4.753-1.08
		c1.656-0.72,3.097-1.728,4.32-2.952c1.296-1.224,2.304-2.593,3.096-4.104c0.864-1.584,1.225-3.168,1.225-4.752
		c0-1.944-0.576-3.456-1.729-4.536c-1.224-1.08-2.736-1.584-4.607-1.584h-5.04l-5.041,19.009H322.942z M348.217,212.271h-7.704
		l13.033-48.676h7.704L348.217,212.271z M363.697,204.71c1.009,0,2.017-0.433,3.098-1.296c1.08-0.864,1.584-1.872,1.584-3.024
		l-4.249-23.186c-0.072-0.36-0.072-0.648-0.145-1.009v-0.936c0-1.512,0.288-3.024,1.008-4.464c0.721-1.369,1.585-2.665,2.737-3.673
		c1.152-1.08,2.448-1.944,3.888-2.593c1.513-0.575,2.952-0.936,4.465-0.936h10.297l-2.017,7.489c-0.504,0-1.151-0.072-2.016-0.145
		c-0.864-0.071-1.8-0.071-2.737-0.071c-1.008,0-1.943,0.071-2.88,0.144c-1.008,0.072-1.872,0.288-2.664,0.576
		c-0.792,0.359-1.439,0.792-1.943,1.296c-0.505,0.504-0.721,1.224-0.721,2.088v0.432l4.248,23.187
		c0.072,0.36,0.072,0.647,0.145,1.008v0.937c0,1.512-0.36,3.023-1.009,4.464c-0.72,1.368-1.584,2.664-2.735,3.744
		c-1.152,1.079-2.448,1.943-3.889,2.592c-1.512,0.648-2.952,0.937-4.465,0.937h-10.872l2.017-7.561H363.697z M377.955,212.271
		l13.032-48.676h21.603l-1.944,7.489h-13.969l-3.457,13.177h10.369l-2.017,7.416h-10.44l-3.456,13.033h13.896l-1.943,7.561H377.955z
		 M415.037,204.71c1.009,0,2.089-0.433,3.097-1.296c1.08-0.864,1.656-1.872,1.656-3.024l-4.248-23.186
		c-0.072-0.36-0.145-0.648-0.145-1.009c-0.072-0.287-0.072-0.575-0.072-0.936c0-1.512,0.36-3.024,1.08-4.464
		c0.648-1.369,1.584-2.665,2.664-3.673c1.152-1.08,2.448-1.944,3.961-2.593c1.44-0.575,2.952-0.936,4.464-0.936h10.226l-1.945,7.489
		c-0.504,0-1.224-0.072-2.016-0.145c-0.864-0.071-1.8-0.071-2.809-0.071c-0.936,0-1.872,0.071-2.88,0.144
		c-0.936,0.072-1.8,0.288-2.592,0.576c-0.792,0.359-1.439,0.792-1.944,1.296c-0.504,0.504-0.792,1.224-0.792,2.088v0.432
		l4.248,23.187c0.072,0.36,0.145,0.647,0.145,1.008c0.072,0.288,0.072,0.576,0.072,0.937c0,1.512-0.36,3.023-1.08,4.464
		c-0.648,1.368-1.584,2.664-2.664,3.744c-1.153,1.079-2.449,1.943-3.961,2.592c-1.44,0.648-2.952,0.937-4.465,0.937h-10.801
		l1.944-7.561H415.037z"/>
	<path clip-path="url(#SVGID_2_)" fill="#002469" d="M114.201,107.072L85.902,212.271H72.941l27.938-105.199H114.201z
		 M96.486,212.271l28.082-105.199h46.804l-4.249,16.057h-30.17l-7.488,28.514h22.393l-4.32,16.057H125l-7.56,28.298h30.098
		l-4.248,16.273H96.486z M24.697,212.271h-3.672l27.938-105.199h3.384L24.697,212.271z M42.195,212.271h-6.841l27.938-105.199h6.697
		L42.195,212.271z M62.356,212.271h-9.577l28.01-105.199h10.009L62.356,212.271z"/>
	<path clip-path="url(#SVGID_2_)" fill="#002469" d="M190.237,107.071c3.096,0,5.833,0.504,8.281,1.44
		c2.376,1.008,4.464,2.304,6.192,3.96c1.728,1.657,3.024,3.601,3.96,5.761c0.865,2.232,1.297,4.536,1.297,6.984
		c0,3.529-0.865,7.129-2.593,10.729c-1.8,3.672-4.176,6.913-7.2,9.865c-3.024,2.88-6.553,5.256-10.513,7.128
		c-4.032,1.872-8.208,2.809-12.601,2.809h-10.009l15.482-48.676H190.237z M178.645,148.186c2.953-0.216,5.833-1.152,8.569-2.664
		c2.664-1.584,5.112-3.384,7.2-5.545c2.089-2.16,3.745-4.536,4.897-7.2c1.224-2.592,1.8-5.112,1.8-7.561
		c0-3.168-0.936-5.76-2.88-7.776c-1.944-1.944-4.897-2.952-8.857-2.952L178.645,148.186z M237.545,143.938
		c-1.944,1.512-4.104,2.952-6.409,4.392c-2.304,1.44-4.752,2.664-7.344,3.744c-2.521,1.152-5.185,2.016-7.921,2.664
		c-2.736,0.649-5.472,1.009-8.137,1.009l15.481-48.676h9.145l-12.097,37.947c5.833-2.448,11.017-5.833,15.481-10.153
		c4.464-4.32,7.561-9.073,9.289-14.473l4.248-13.321h9.217l-12.097,37.947c3.456-1.44,6.697-3.312,9.865-5.545
		c3.096-2.232,5.832-4.68,8.208-7.488c2.377-2.736,4.249-5.689,5.688-8.857c1.368-3.168,2.088-6.408,2.088-9.792
		c0-2.161-0.288-4.249-1.008-6.265h9.073c0.648,2.16,0.936,4.32,0.936,6.265c0,5.544-1.512,10.8-4.465,15.841
		c-2.952,5.04-6.695,9.432-11.231,13.249c-2.018,1.728-4.249,3.312-6.697,4.896c-2.521,1.584-5.112,3.024-7.849,4.248
		c-2.809,1.224-5.616,2.232-8.568,3.024c-2.88,0.721-5.761,1.153-8.569,1.153L237.545,143.938z M285.5,147.466
		c0,0.432,0,0.864-0.071,1.224c0,0.432-0.072,0.864-0.072,1.296c0,1.8,0.288,3.744,0.936,5.761h-9.072
		c-0.504-1.945-0.721-3.817-0.721-5.761c0-5.544,1.513-10.801,4.394-15.841c2.952-4.968,6.695-9.433,11.304-13.249
		c1.801-1.512,3.961-3.024,6.553-4.68c2.593-1.584,5.328-3.096,8.28-4.465c2.881-1.368,5.833-2.52,8.785-3.384
		c2.952-0.864,5.688-1.296,8.209-1.296l-15.481,48.676h-9.145l2.592-8.281H285.5z M304.438,139.977l6.841-21.601
		c-5.329,2.16-10.081,5.184-14.257,8.929c-4.177,3.744-7.345,7.992-9.434,12.672H304.438z M331.439,107.071h12.745
		c2.304,0,4.464,0.288,6.48,1.008c2.017,0.648,3.816,1.584,5.328,2.808c1.44,1.224,2.664,2.665,3.528,4.321
		c0.792,1.656,1.224,3.456,1.224,5.4c0,2.088-0.432,4.104-1.224,6.048c-0.864,1.945-2.088,3.745-3.528,5.329
		c-1.512,1.656-3.24,3.096-5.256,4.392c-1.945,1.296-4.104,2.304-6.337,3.024l4.176,16.346h-9.072l-3.743-14.834h-5.905
		l-4.68,14.834h-9.218L331.439,107.071z M335.761,133.497c1.872,0,3.815-0.36,5.76-1.08c1.944-0.72,3.672-1.656,5.112-2.88
		c1.512-1.224,2.735-2.665,3.744-4.177c0.937-1.512,1.44-3.096,1.44-4.752c0-1.944-0.72-3.456-2.161-4.536
		c-1.368-1.008-3.24-1.584-5.472-1.584h-5.904l-6.049,19.009H335.761z M378.027,107.071c3.096,0,5.832,0.504,8.28,1.44
		c2.376,1.008,4.464,2.304,6.192,3.96c1.729,1.657,3.024,3.601,3.889,5.761c0.936,2.232,1.368,4.536,1.368,6.984
		c0,3.529-0.864,7.129-2.593,10.729c-1.8,3.672-4.177,6.913-7.201,9.865c-3.023,2.88-6.552,5.256-10.513,7.128
		c-4.032,1.872-8.208,2.809-12.6,2.809h-10.009l15.48-48.676H378.027z M366.362,148.186c3.024-0.216,5.904-1.152,8.64-2.664
		c2.665-1.584,5.113-3.384,7.201-5.545c2.088-2.16,3.744-4.536,4.896-7.2c1.224-2.592,1.8-5.112,1.8-7.561
		c0-3.168-0.937-5.76-2.88-7.776c-1.944-1.944-4.896-2.952-8.857-2.952L366.362,148.186z M415.47,122.48h-9.217l4.969-15.337h9.145
		L415.47,122.48z M426.702,148.186c1.152,0,2.376-0.432,3.672-1.296c1.296-0.864,1.872-1.872,1.872-3.024l-5.04-23.258
		c-0.071-0.288-0.071-0.648-0.144-0.936c-0.072-0.288-0.072-0.648-0.072-0.936c0-1.584,0.432-3.024,1.225-4.464
		c0.863-1.441,1.943-2.665,3.239-3.745c1.368-1.08,2.953-1.872,4.682-2.52c1.728-0.648,3.527-0.936,5.327-0.936h12.241l-2.376,7.417
		c-0.576,0-1.439,0-2.447-0.072c-1.01-0.072-2.09-0.072-3.241-0.072c-1.152,0-2.305,0-3.456,0.144
		c-1.152,0.072-2.232,0.288-3.168,0.576c-0.864,0.288-1.656,0.72-2.232,1.296c-0.647,0.504-0.936,1.224-0.936,2.088v0.36
		l5.04,23.258c0.071,0.288,0.144,0.648,0.216,0.936v0.936c0,1.584-0.36,3.096-1.225,4.464c-0.792,1.44-1.871,2.664-3.239,3.816
		c-1.368,1.08-2.881,1.944-4.682,2.592c-1.728,0.577-3.527,0.937-5.256,0.937h-12.889l2.304-7.561H426.702z"/>
</g>
</svg>
