<?xml version="1.0" encoding="utf-8"?>
<!-- Generator: Adobe Illustrator 25.4.1, SVG Export Plug-In . SVG Version: 6.00 Build 0)  -->
<svg version="1.1" id="Layer_1" xmlns="http://www.w3.org/2000/svg" xmlns:xlink="http://www.w3.org/1999/xlink" x="0px" y="0px"
	 viewBox="0 0 512 512" style="enable-background:new 0 0 512 512;" xml:space="preserve">
<style type="text/css">
	.st0{fill:#007BB2;}
</style>
<g>
	<g>
		<g>
			<path class="st0" d="M403.8,69.8h-45.7V49.4c0-6.6-7.2-9.6-13.8-9.6h-35.4c-8.4-24-29.4-36-53.5-36c-23.8-0.9-45.4,13.7-53.5,36
				h-34.8c-6.6,0-13.2,3-13.2,9.6v20.4h-45.7c-27.1,0.3-49.2,21.6-50.5,48.7v344.2c0,26.4,24,45.7,50.5,45.7h295.5
				c26.4,0,50.5-19.2,50.5-45.7V118.5C452.9,91.4,430.8,70.1,403.8,69.8z M177.9,63.8h33c5.8-0.7,10.4-5.1,11.4-10.8
				c3.6-15.5,17.1-26.6,33-27c15.7,0.5,29.1,11.6,32.4,27c1.1,5.9,6,10.4,12,10.8h34.2v48.1H177.9V63.8z M430.2,462.6
				c0,13.2-13.2,21.6-26.4,21.6H108.2c-13.2,0-26.4-8.4-26.4-21.6V118.5c1.2-13.8,12.6-24.4,26.4-24.6h45.7v30.6
				c0.6,6.7,6.5,11.8,13.2,11.4h177.2c6.9,0.4,12.9-4.6,13.8-11.4V93.8h45.7c13.8,0.3,25.2,10.9,26.4,24.6L430.2,462.6L430.2,462.6z
				"/>
			<path class="st0" d="M209.7,272.2c-4.5-4.7-12-5-16.8-0.6l-38.4,36.6l-16.2-16.8c-4.5-4.7-12-5-16.8-0.6
				c-4.7,4.9-4.7,12.5,0,17.4l24.6,25.2c2.1,2.4,5.2,3.7,8.4,3.6c3.2,0,6.2-1.3,8.4-3.6l46.9-44.4c4.6-4.3,5-11.5,0.7-16.1
				C210.2,272.7,210,272.5,209.7,272.2z"/>
			<path class="st0" d="M382.1,298.1H244c-6.6,0-12,5.4-12,12c0,6.6,5.4,12,12,12h138.2c6.6,0,12-5.4,12-12
				C394.2,303.4,388.8,298.1,382.1,298.1z"/>
			<path class="st0" d="M209.7,176.1c-4.5-4.7-12-5-16.8-0.6l-38.4,36.6l-16.2-16.8c-4.5-4.7-12-5-16.8-0.6
				c-4.7,4.9-4.7,12.5,0,17.4l24.6,25.2c2.1,2.4,5.2,3.7,8.4,3.6c3.2,0,6.2-1.3,8.4-3.6l46.9-44.4c4.6-4.3,5-11.5,0.7-16.1
				C210.2,176.6,210,176.4,209.7,176.1z"/>
			<path class="st0" d="M382.1,202H244c-6.6,0-12,5.4-12,12s5.4,12,12,12h138.2c6.6,0,12-5.4,12-12S388.8,202,382.1,202z"/>
			<path class="st0" d="M209.7,368.3c-4.5-4.7-12-5-16.8-0.6l-38.4,36.6l-16.2-16.8c-4.5-4.7-12-5-16.8-0.6
				c-4.7,4.9-4.7,12.5,0,17.4l24.6,25.2c2.1,2.4,5.2,3.7,8.4,3.6c3.2,0,6.2-1.3,8.4-3.6l46.9-44.4c4.6-4.3,5-11.5,0.7-16.1
				C210.2,368.8,210,368.6,209.7,368.3z"/>
			<path class="st0" d="M382.1,394.2H244c-6.6,0-12,5.4-12,12c0,6.6,5.4,12,12,12h138.2c6.6,0,12-5.4,12-12
				C394.2,399.6,388.8,394.2,382.1,394.2z"/>
		</g>
	</g>
</g>
</svg>
