<?xml version="1.0" encoding="utf-8"?>
<!-- Generator: Adobe Illustrator 25.4.1, SVG Export Plug-In . SVG Version: 6.00 Build 0)  -->
<svg version="1.1" id="Layer_1" xmlns="http://www.w3.org/2000/svg" xmlns:xlink="http://www.w3.org/1999/xlink" x="0px" y="0px"
	 viewBox="0 0 512 512" style="enable-background:new 0 0 512 512;" xml:space="preserve">
<style type="text/css">
	.st0{fill:#007BB2;}
</style>
<g>
	<g>
		<path d="M201.8,214c-57.9,0-105-47.1-105-105s47.1-105,105-105s105,47.1,105,105S259.7,214,201.8,214z M201.8,24.9
			c-46.3,0-84,37.7-84,84s37.7,84,84,84s84-37.7,84-84S248.1,24.9,201.8,24.9z"/>
	</g>
	<g>
		<path d="M191.3,445.1H23.2c-5.8,0-10.5-4.7-10.5-10.5v-84c0-52.1,42.4-94.5,94.5-94.5h126c5.8,0,10.5,4.7,10.5,10.5
			s-4.7,10.5-10.5,10.5h-126c-40.5,0-73.5,33-73.5,73.5v73.5h157.6c5.8,0,10.5,4.7,10.5,10.5C201.8,440.4,197.1,445.1,191.3,445.1z"
			/>
	</g>
	<g>
		<g>
			<path d="M369.9,424.1c-28.9,0-52.5-23.6-52.5-52.5c0-28.9,23.6-52.5,52.5-52.5s52.5,23.6,52.5,52.5
				C422.4,400.5,398.8,424.1,369.9,424.1z M369.9,340c-17.4,0-31.5,14.1-31.5,31.5c0,17.4,14.1,31.5,31.5,31.5
				c17.4,0,31.5-14.1,31.5-31.5C401.4,354.2,387.2,340,369.9,340z"/>
		</g>
		<g>
			<path d="M386.6,508.1h-33.5c-10.8,0-19.8-8.1-20.9-18.9l-2.7-26.7c-6.4-2.8-12.4-6.4-18.2-10.6L286.8,463
				c-9.9,4.5-21.4,0.7-26.8-8.7l-16.7-29c-5.4-9.4-2.9-21.2,5.9-27.6l21.6-15.5c-0.4-3.3-0.7-6.9-0.7-10.7s0.3-7.4,0.7-10.7
				l-21.6-15.5c-8.8-6.3-11.3-18.2-5.9-27.6l16.7-29c5.4-9.4,16.9-13.1,26.8-8.7l24.5,11.1c5.7-4.2,11.8-7.7,18.2-10.6l2.7-26.7
				c1.1-10.8,10.1-18.9,20.9-18.9h33.5c10.8,0,19.8,8.1,20.9,18.9l2.7,26.7c6.4,2.8,12.5,6.4,18.2,10.6l24.5-11.1
				c9.9-4.4,21.4-0.7,26.8,8.7l16.7,29c5.4,9.4,2.9,21.2-5.9,27.6l-21.6,15.5c0.4,3.3,0.7,6.9,0.7,10.7s-0.3,7.4-0.7,10.7l21.6,15.5
				c8.8,6.3,11.3,18.2,5.9,27.6l-16.7,29c-5.4,9.4-16.9,13.1-26.8,8.7l-24.5-11.1c-5.7,4.2-11.8,7.7-18.2,10.6l-2.7,26.7
				C406.4,500,397.4,508.1,386.6,508.1L386.6,508.1z M312.8,429.2c2.4,0,4.8,0.8,6.7,2.5c7.1,6,15,10.5,23.4,13.6
				c3.8,1.4,6.4,4.8,6.8,8.8l3.3,33h33.5l3.3-33c0.4-4,3.1-7.4,6.8-8.8c8.4-3.1,16.3-7.6,23.4-13.6c3.1-2.6,7.4-3.2,11-1.5
				l30.3,13.7l16.7-29l-26.8-19.3c-3.3-2.4-4.9-6.4-4.2-10.4c0.8-4.4,1.4-8.9,1.4-13.6c0-4.7-0.6-9.2-1.4-13.6
				c-0.7-4,0.9-8,4.2-10.4l26.8-19.3l-16.7-29L431.2,313c-3.7,1.7-8,1.1-11.1-1.5c-7.1-6-15-10.5-23.4-13.6
				c-3.8-1.4-6.4-4.8-6.8-8.8l-3.3-33.1h-33.5l-3.3,33c-0.4,4-3.1,7.4-6.8,8.8c-8.4,3.1-16.3,7.6-23.4,13.6c-3.1,2.6-7.4,3.2-11,1.5
				l-30.3-13.7l-16.7,29l26.8,19.3c3.3,2.4,4.9,6.4,4.2,10.4c-0.8,4.4-1.4,8.9-1.4,13.6c0,4.7,0.6,9.2,1.4,13.6
				c0.7,4-0.9,8-4.2,10.4l-26.8,19.3l16.7,29l30.3-13.7C309.9,429.5,311.3,429.2,312.8,429.2L312.8,429.2z"/>
		</g>
	</g>
</g>
</svg>
